<svg width="54" height="54" viewBox="0 0 54 54" fill="none" xmlns="http://www.w3.org/2000/svg">
<style>
	@keyframes rotate {
		0% { transform: rotate(0deg); }
		100% { transform: rotate(360deg); }
	}
	@keyframes rotateZ {
		0% { transform: rotate3d(0, 1, 0, 0deg); }
		100% { transform: rotate3d(0, 1, 0, 180deg); }
	}

	#g1 {
		transform-origin: 50% 50%;
		animation: 3s linear infinite both rotate;
	}
	#g2 {
		transform-origin: 50% 50%;
		animation: 1.5s cubic-bezier(0.65, 0, 0.35, 1) infinite both rotateZ;
	}
</style>

<defs>
		<linearGradient id="spinner-secondHalf">
		<stop offset="0%" stop-opacity="0" stop-color="#FEB73A" />
		<stop offset="100%" stop-opacity="0.5" stop-color="#FEB535" />
	</linearGradient>

	<linearGradient id="spinner-firstHalf">
		<stop offset="0%" stop-opacity="1" stop-color="#FFB025" />
		<stop offset="100%" stop-opacity="0.5" stop-color="#FEB535" />
	</linearGradient>

	<radialGradient id="paint0_angular_7048_28364" cx="0" cy="0" r="1" gradientUnits="userSpaceOnUse" gradientTransform="translate(26.037 7.25926) rotate(1.39294) scale(30.472 29.3012)">
		<stop stop-color="#FFB025"/>
		<stop offset="0.762434" stop-color="#FEB535" stop-opacity="0.233397"/>
		<stop offset="1" stop-color="#FEB73A" stop-opacity="0"/>
	</radialGradient>

	<radialGradient id="sm_star_gradient" cx="0" cy="0" r="1" gradientUnits="userSpaceOnUse" gradientTransform="translate(44.6087 8.21738) rotate(90) scale(4.69565)">
		<stop stop-color="#FFC154"/>
		<stop offset="1" stop-color="#FF6F31"/>
	</radialGradient>

	<radialGradient id="lg_star_gradient" cx="0" cy="0" r="1" gradientUnits="userSpaceOnUse" gradientTransform="translate(27 26) rotate(66.2455) scale(17.481 35.9927)">
		<stop stop-color="#FFC154"/>
		<stop offset="1" stop-color="#FB550E"/>
	</radialGradient>
</defs>
	<g style="transform-origin: center; transform: scale(0.92)">
		<g id="g1">
			<g stroke-width="5" style="transform-origin: center; transform: rotate(135deg);">
				<path stroke="url(#spinner-secondHalf)" d="M 4 100 A 96 96 0 0 1 196 100" style="transform: scale(0.27);" />
				<path stroke="url(#spinner-firstHalf)" d="M 196 100 A 96 96 0 0 1 4 100" style="transform: scale(0.27);" />
			</g>
			<path d="M45.7831 7.0436C44.6149 5.8755 44.6093 3.52173 44.6093 3.52173C44.6093 3.52173 44.6031 5.8755 43.4355 7.0436C42.2674 8.21118 39.9131 8.21738 39.9131 8.21738C39.9131 8.21738 42.2674 8.22359 43.435 9.39116C44.6031 10.5593 44.6087 12.913 44.6087 12.913C44.6087 12.913 44.6149 10.5593 45.7825 9.39116C46.9507 8.22307 49.3044 8.21738 49.3044 8.21738C49.3044 8.21738 46.9501 8.21118 45.7825 7.0436H45.7831Z" fill="url(#sm_star_gradient)"/>
		</g>

		<g id="g2" clip-path="url(#clip0_7048_28364)">
			<path d="M30.2512 22.0004C27.0171 18.0203 27.0016 10 27.0016 10C27.0016 10 26.9845 18.0203 23.7519 22.0004C20.5178 25.9789 14 26 14 26C14 26 20.5178 26.0211 23.7504 29.9996C26.9845 33.9797 27 42 27 42C27 42 27.0171 33.9797 30.2496 29.9996C33.4837 26.0194 40 26 40 26C40 26 33.4822 25.9789 30.2496 22.0004H30.2512Z" fill="url(#lg_star_gradient)"/>
		</g>
	</g>
</svg>